<?xml version="1.0" standalone="no"?>
<!DOCTYPE svg PUBLIC "-//W3C//DTD SVG 20010904//EN"
 "http://www.w3.org/TR/2001/REC-SVG-20010904/DTD/svg10.dtd">
<svg version="1.0" xmlns="http://www.w3.org/2000/svg"
 width="544.000000pt" height="544.000000pt" viewBox="0 0 544.000000 544.000000"
 preserveAspectRatio="xMidYMid meet">
<metadata>
Created by potrace 1.14, written by Peter Selinger 2001-2017
</metadata>
<g transform="translate(0.000000,544.000000) scale(0.100000,-0.100000)"
fill="#000000" stroke="none">
<path d="M1171 5413 c-90 -44 -129 -124 -126 -255 1 -37 -1 -69 -4 -69 -3 -1
-148 -2 -321 -4 -173 -1 -331 -5 -350 -9 -62 -12 -141 -57 -196 -112 -30 -29
-54 -60 -54 -68 0 -8 -4 -16 -9 -18 -5 -1 -19 -30 -30 -63 -20 -60 -20 -63
-18 -2290 l2 -2230 23 -49 c23 -50 72 -118 107 -148 31 -28 117 -76 150 -85
17 -4 1081 -9 2366 -10 2322 -3 2336 -3 2395 17 114 39 203 122 247 230 l22
55 2 2221 c3 2460 8 2268 -62 2378 -37 58 -74 93 -138 130 -78 45 -114 49
-447 52 -173 1 -320 2 -326 3 -6 1 -10 29 -9 74 1 39 -3 88 -8 107 -13 54 -56
108 -106 138 -38 22 -58 27 -116 27 -59 0 -77 -5 -112 -27 -83 -54 -113 -119
-113 -248 l0 -75 -1220 0 -1220 0 -1 75 c-1 101 -6 125 -33 168 -67 104 -187
139 -295 85z m396 -724 c22 -101 -9 -207 -80 -282 -40 -42 -123 -82 -175 -85
-18 -1 -36 -3 -40 -4 -4 -1 -26 1 -50 5 -154 26 -262 166 -250 321 5 61 42
156 64 163 6 2 10 -32 9 -92 -1 -164 32 -234 133 -282 90 -42 190 -24 258 49
50 53 64 103 64 231 l0 112 29 -45 c16 -25 33 -66 38 -91z m2385 -119 c40
-132 193 -197 318 -134 93 46 127 121 125 274 -1 58 3 99 8 97 5 -1 21 -23 35
-47 44 -78 40 -203 -10 -295 -43 -80 -171 -154 -258 -149 -204 10 -344 190
-295 378 8 31 25 71 37 90 l23 35 6 -117 c3 -64 8 -124 11 -132z m1119 -1009
c1 -3 3 -692 4 -1531 1 -1257 -1 -1533 -12 -1572 -17 -60 -69 -115 -130 -137
-45 -17 -169 -18 -2228 -17 l-2180 1 -45 27 c-50 29 -70 51 -97 100 -16 31
-17 125 -18 1578 -1 870 3 1548 8 1551 11 8 4697 8 4698 0z"/>
<path d="M1839 3278 c0 -18 0 -130 0 -248 1 -118 1 -222 1 -230 0 -34 0 -1586
0 -1600 -3 -287 -1 -530 3 -537 4 -6 355 -9 914 -9 l908 1 1 288 c0 195 -3
287 -10 288 -6 1 -270 3 -586 4 -316 1 -581 3 -587 4 -10 1 -13 61 -11 265 l1
264 506 0 c278 1 530 1 559 1 l52 1 0 290 0 290 -559 0 -559 0 0 189 1 189
426 1 c234 0 496 0 582 0 l156 1 0 290 0 290 -899 0 -898 0 -1 -32z"/>
<path d="M871 3138 c-13 -7 -33 -25 -44 -40 -18 -24 -20 -42 -19 -245 0 -127
5 -229 11 -245 22 -58 44 -63 286 -64 232 -2 249 1 290 46 18 20 20 37 20 253
0 216 -2 234 -20 259 -11 15 -30 31 -41 37 -33 15 -453 14 -483 -1z"/>
<path d="M4100 3142 c-34 -15 -57 -38 -66 -67 -8 -23 -12 -358 -5 -447 0 -10
14 -32 30 -50 l29 -33 219 -2 c124 -1 232 3 250 8 18 6 43 24 55 41 21 30 21
40 21 255 -1 316 12 303 -303 302 -118 0 -222 -3 -230 -7z"/>
<path d="M1017 2244 c-2 -3 -38 -6 -77 -8 -70 -2 -74 -4 -101 -36 -16 -19 -29
-46 -30 -60 0 -14 -1 -116 -1 -227 -1 -293 -10 -284 318 -281 304 4 291 -10
290 322 -1 163 -5 221 -14 224 -7 2 -12 9 -12 16 0 6 -12 19 -27 28 -22 12
-58 16 -174 15 -81 0 -151 3 -156 6 -6 4 -13 4 -16 1z"/>
<path d="M4095 2230 c-11 -4 -31 -20 -45 -34 -24 -26 -24 -28 -25 -244 -1
-119 3 -229 7 -243 5 -15 20 -37 34 -50 25 -24 29 -24 246 -26 329 -3 320 -11
320 264 0 284 2 268 -31 305 l-29 33 -229 1 c-125 1 -237 -2 -248 -6z"/>
<path d="M873 1315 c-62 -26 -65 -40 -65 -290 0 -317 -14 -303 302 -303 164 0
222 3 245 14 56 26 59 39 60 274 1 118 -3 229 -8 246 -6 21 -22 39 -46 52 -33
19 -53 21 -246 20 -152 0 -219 -3 -242 -13z"/>
<path d="M4087 1317 c-17 -7 -34 -26 -46 -51 -16 -36 -18 -66 -17 -246 1 -144
6 -215 15 -237 23 -55 50 -61 291 -61 117 0 224 4 236 8 12 5 32 23 44 40 22
31 23 40 23 255 0 316 13 303 -303 303 -126 -1 -226 -5 -243 -11z"/>
</g>
</svg>
